<svg width="24" height="25" viewBox="0 0 24 25" fill="none" xmlns="http://www.w3.org/2000/svg">
<path d="M2 12.5C2 8.72876 2 6.84315 3.17157 5.67157C4.34315 4.5 6.22876 4.5 10 4.5H14C17.7712 4.5 19.6569 4.5 20.8284 5.67157C22 6.84315 22 8.72876 22 12.5V14.5C22 18.2712 22 20.1569 20.8284 21.3284C19.6569 22.5 17.7712 22.5 14 22.5H10C6.22876 22.5 4.34315 22.5 3.17157 21.3284C2 20.1569 2 18.2712 2 14.5V12.5Z" stroke="white" stroke-width="1.5"/>
<path d="M7 4.5V3" stroke="white" stroke-width="1.5" stroke-linecap="round"/>
<path d="M17 4.5V3" stroke="white" stroke-width="1.5" stroke-linecap="round"/>
<path d="M2.5 9.5H21.5" stroke="white" stroke-width="1.5" stroke-linecap="round"/>
<path d="M18 17.5C18 18.0523 17.5523 18.5 17 18.5C16.4477 18.5 16 18.0523 16 17.5C16 16.9477 16.4477 16.5 17 16.5C17.5523 16.5 18 16.9477 18 17.5Z" fill="white"/>
<path d="M18 13.5C18 14.0523 17.5523 14.5 17 14.5C16.4477 14.5 16 14.0523 16 13.5C16 12.9477 16.4477 12.5 17 12.5C17.5523 12.5 18 12.9477 18 13.5Z" fill="white"/>
<path d="M13 17.5C13 18.0523 12.5523 18.5 12 18.5C11.4477 18.5 11 18.0523 11 17.5C11 16.9477 11.4477 16.5 12 16.5C12.5523 16.5 13 16.9477 13 17.5Z" fill="white"/>
<path d="M13 13.5C13 14.0523 12.5523 14.5 12 14.5C11.4477 14.5 11 14.0523 11 13.5C11 12.9477 11.4477 12.5 12 12.5C12.5523 12.5 13 12.9477 13 13.5Z" fill="white"/>
<path d="M8 17.5C8 18.0523 7.55228 18.5 7 18.5C6.44772 18.5 6 18.0523 6 17.5C6 16.9477 6.44772 16.5 7 16.5C7.55228 16.5 8 16.9477 8 17.5Z" fill="white"/>
<path d="M8 13.5C8 14.0523 7.55228 14.5 7 14.5C6.44772 14.5 6 14.0523 6 13.5C6 12.9477 6.44772 12.5 7 12.5C7.55228 12.5 8 12.9477 8 13.5Z" fill="white"/>
</svg>
